<svg xmlns="http://www.w3.org/2000/svg" width="199" height="99" fill="#000">
  <g transform="translate(0 0)">
    <path id="link" d="M39.84 0.04L40.26 0.09L40.66 0.15L41.06 0.24L41.46 0.34L41.84 0.46L42.22 0.59L42.6 0.75L42.96 0.91L43.31 1.1L43.66 1.3L43.99 1.51L44.32 1.74L44.63 1.98L44.93 2.23L45.22 2.5L45.5 2.78L45.77 3.07L46.02 3.37L46.26 3.68L46.49 4.01L46.7 4.34L46.9 4.69L47.09 5.04L47.25 5.4L47.41 5.78L47.54 6.16L47.66 6.54L47.76 6.94L47.85 7.34L47.91 7.74L47.96 8.16L47.99 8.58L48 9L48 39L47.99 39.42L47.96 39.84L47.91 40.26L47.85 40.66L47.76 41.06L47.66 41.46L47.54 41.84L47.41 42.22L47.25 42.6L47.09 42.96L46.9 43.31L46.7 43.66L46.49 43.99L46.26 44.32L46.02 44.63L45.77 44.93L45.5 45.22L45.22 45.5L44.93 45.77L44.63 46.02L44.32 46.26L43.99 46.49L43.66 46.7L43.31 46.9L42.96 47.09L42.6 47.25L42.22 47.41L41.84 47.54L41.46 47.66L41.06 47.76L40.66 47.85L40.26 47.91L39.84 47.96L39.42 47.99L39 48L9 48L8.58 47.99L8.16 47.96L7.74 47.91L7.34 47.85L6.94 47.76L6.54 47.66L6.16 47.54L5.78 47.41L5.4 47.25L5.04 47.09L4.69 46.9L4.34 46.7L4.01 46.49L3.68 46.26L3.37 46.02L3.07 45.77L2.78 45.5L2.5 45.22L2.23 44.93L1.98 44.63L1.74 44.32L1.51 43.99L1.3 43.66L1.1 43.31L0.91 42.96L0.75 42.6L0.59 42.22L0.46 41.84L0.34 41.46L0.24 41.06L0.15 40.66L0.09 40.26L0.04 39.84L0.01 39.42L0 39L0 9L0.01 8.58L0.04 8.16L0.09 7.74L0.15 7.34L0.24 6.94L0.34 6.54L0.46 6.16L0.59 5.78L0.75 5.4L0.91 5.04L1.1 4.69L1.3 4.34L1.51 4.01L1.74 3.68L1.98 3.37L2.23 3.07L2.5 2.78L2.78 2.5L3.07 2.23L3.37 1.98L3.68 1.74L4.01 1.51L4.34 1.3L4.69 1.1L5.04 0.91L5.4 0.75L5.78 0.59L6.16 0.46L6.54 0.34L6.94 0.24L7.34 0.15L7.74 0.09L8.16 0.04L8.58 0.01L9 0L39 0L39.42 0.01L39.84 0.04ZM8.82 6.01L8.64 6.02L8.46 6.05L8.29 6.09L8.12 6.13L7.95 6.19L7.79 6.25L7.64 6.33L7.48 6.41L7.34 6.5L7.2 6.6L7.07 6.71L6.94 6.82L6.82 6.94L6.7 7.07L6.6 7.2L6.5 7.34L6.41 7.49L6.33 7.64L6.25 7.79L6.19 7.95L6.13 8.12L6.08 8.29L6.05 8.46L6.02 8.64L6.01 8.82L6 9L6 39L6.01 39.18L6.02 39.36L6.05 39.54L6.08 39.71L6.13 39.88L6.19 40.05L6.25 40.21L6.33 40.36L6.41 40.52L6.5 40.66L6.6 40.8L6.7 40.93L6.82 41.06L6.94 41.18L7.07 41.3L7.2 41.4L7.34 41.5L7.48 41.59L7.64 41.67L7.79 41.75L7.95 41.81L8.12 41.87L8.29 41.92L8.46 41.95L8.64 41.98L8.82 41.99L9 42L39 42L39.18 41.99L39.36 41.98L39.54 41.95L39.71 41.92L39.88 41.87L40.05 41.81L40.21 41.75L40.36 41.67L40.52 41.59L40.66 41.5L40.8 41.4L40.93 41.3L41.06 41.18L41.18 41.06L41.3 40.93L41.4 40.8L41.5 40.66L41.59 40.52L41.67 40.36L41.75 40.21L41.81 40.05L41.87 39.88L41.92 39.71L41.95 39.54L41.98 39.36L41.99 39.18L42 39L42 9L41.9 8.78L41.8 8.57L41.7 8.37L41.6 8.18L41.49 7.99L41.39 7.81L41.28 7.65L41.18 7.49L41.07 7.33L40.96 7.19L40.85 7.05L40.75 6.93L40.63 6.81L40.52 6.7L40.41 6.59L40.3 6.5L40.19 6.41L40.07 6.33L39.96 6.26L39.84 6.2L39.72 6.15L39.6 6.1L39.48 6.07L39.36 6.04L39.24 6.02L39.12 6L39 6L9 6L8.82 6.01Z M34.58 24.1C32.86 25.83 30.3 26.18 28.21 25.18C28.85 24.55 33.95 19.45 34.58 18.81C35.32 18.08 35.32 16.89 34.58 16.16C34.32 15.9 32.2 13.78 31.94 13.51C31.21 12.78 30.02 12.78 29.29 13.51C28.66 14.15 23.56 19.25 22.92 19.89C21.93 17.8 22.27 15.24 24 13.51C24.27 13.24 26.49 11.02 26.76 10.75C28.96 8.56 32.51 8.56 34.7 10.75C34.97 11.01 37.09 13.13 37.35 13.39C39.54 15.59 39.54 19.15 37.35 21.34C36.8 21.89 34.86 23.83 34.58 24.1ZM18.7 26.75C19.5 25.96 25.85 19.6 26.65 18.81C27.38 18.08 28.56 18.08 29.29 18.81C30.02 19.54 30.02 20.72 29.29 21.46C28.5 22.25 22.15 28.6 21.35 29.4C20.62 30.13 19.43 30.13 18.7 29.4C17.97 28.66 17.97 27.48 18.7 26.75ZM16.06 34.69C16.79 35.42 17.97 35.42 18.7 34.69C19.34 34.05 24.44 28.95 25.08 28.32C26.07 30.4 25.72 32.96 24 34.69C23.75 34.97 21.72 37.18 21.47 37.46C19.27 39.65 15.72 39.65 13.52 37.46C13.24 37.17 10.93 34.86 10.64 34.58C8.45 32.38 8.45 28.83 10.64 26.63C10.92 26.38 13.13 24.36 13.41 24.1C15.14 22.38 17.7 22.03 19.78 23.02C19.15 23.66 14.05 28.76 13.41 29.4C12.68 30.13 12.68 31.32 13.41 32.05C13.94 32.57 15.79 34.43 16.06 34.69Z" />
  </g>
  <g transform="translate(50, 0)">
    <path id="layers" d="M39.84 0.04L40.26 0.09L40.66 0.15L41.06 0.24L41.46 0.34L41.84 0.46L42.22 0.59L42.6 0.75L42.96 0.91L43.31 1.1L43.66 1.3L43.99 1.51L44.32 1.74L44.63 1.98L44.93 2.23L45.22 2.5L45.5 2.78L45.77 3.07L46.02 3.37L46.26 3.68L46.49 4.01L46.7 4.34L46.9 4.69L47.09 5.04L47.25 5.4L47.41 5.78L47.54 6.16L47.66 6.54L47.76 6.94L47.85 7.34L47.91 7.74L47.96 8.16L47.99 8.58L48 9L48 39L47.99 39.42L47.96 39.84L47.91 40.26L47.85 40.66L47.76 41.06L47.66 41.46L47.54 41.84L47.41 42.22L47.25 42.6L47.09 42.96L46.9 43.31L46.7 43.66L46.49 43.99L46.26 44.32L46.02 44.63L45.77 44.93L45.5 45.22L45.22 45.5L44.93 45.77L44.63 46.02L44.32 46.26L43.99 46.49L43.66 46.7L43.31 46.9L42.96 47.09L42.6 47.25L42.22 47.41L41.84 47.54L41.46 47.66L41.06 47.76L40.66 47.85L40.26 47.91L39.84 47.96L39.42 47.99L39 48L9 48L8.58 47.99L8.16 47.96L7.74 47.91L7.34 47.85L6.94 47.76L6.54 47.66L6.16 47.54L5.78 47.41L5.4 47.25L5.04 47.09L4.69 46.9L4.34 46.7L4.01 46.49L3.68 46.26L3.37 46.02L3.07 45.77L2.78 45.5L2.5 45.22L2.23 44.93L1.98 44.63L1.74 44.32L1.51 43.99L1.3 43.66L1.1 43.31L0.91 42.96L0.75 42.6L0.59 42.22L0.46 41.84L0.34 41.46L0.24 41.06L0.15 40.66L0.09 40.26L0.04 39.84L0.01 39.42L0 39L0 9L0.01 8.58L0.04 8.16L0.09 7.74L0.15 7.34L0.24 6.94L0.34 6.54L0.46 6.16L0.59 5.78L0.75 5.4L0.91 5.04L1.1 4.69L1.3 4.34L1.51 4.01L1.74 3.68L1.98 3.37L2.23 3.07L2.5 2.78L2.78 2.5L3.07 2.23L3.37 1.98L3.68 1.74L4.01 1.51L4.34 1.3L4.69 1.1L5.04 0.91L5.4 0.75L5.78 0.59L6.16 0.46L6.54 0.34L6.94 0.24L7.34 0.15L7.74 0.09L8.16 0.04L8.58 0.01L9 0L39 0L39.42 0.01L39.84 0.04ZM8.82 6.01L8.64 6.02L8.46 6.05L8.29 6.09L8.12 6.13L7.95 6.19L7.79 6.25L7.64 6.33L7.48 6.41L7.34 6.5L7.2 6.6L7.07 6.71L6.94 6.82L6.82 6.94L6.7 7.07L6.6 7.2L6.5 7.34L6.41 7.49L6.33 7.64L6.25 7.79L6.19 7.95L6.13 8.12L6.08 8.29L6.05 8.46L6.02 8.64L6.01 8.82L6 9L6 39L6.01 39.18L6.02 39.36L6.05 39.54L6.08 39.71L6.13 39.88L6.19 40.05L6.25 40.21L6.33 40.36L6.41 40.52L6.5 40.66L6.6 40.8L6.7 40.93L6.82 41.06L6.94 41.18L7.07 41.3L7.2 41.4L7.34 41.5L7.48 41.59L7.64 41.67L7.79 41.75L7.95 41.81L8.12 41.87L8.29 41.92L8.46 41.95L8.64 41.98L8.82 41.99L9 42L39 42L39.18 41.99L39.36 41.98L39.54 41.95L39.71 41.92L39.88 41.87L40.05 41.81L40.21 41.75L40.36 41.67L40.52 41.59L40.66 41.5L40.8 41.4L40.93 41.3L41.06 41.18L41.18 41.06L41.3 40.93L41.4 40.8L41.5 40.66L41.59 40.52L41.67 40.36L41.75 40.21L41.81 40.05L41.87 39.88L41.92 39.71L41.95 39.54L41.98 39.36L41.99 39.18L42 39L42 9L41.9 8.78L41.8 8.57L41.7 8.37L41.6 8.18L41.49 7.99L41.39 7.81L41.28 7.65L41.18 7.49L41.07 7.33L40.96 7.19L40.85 7.05L40.75 6.93L40.63 6.81L40.52 6.7L40.41 6.59L40.3 6.5L40.19 6.41L40.07 6.33L39.96 6.26L39.84 6.2L39.72 6.15L39.6 6.1L39.48 6.07L39.36 6.04L39.24 6.02L39.12 6L39 6L9 6L8.82 6.01Z M23.99 17.82L36.27 25L38.99 23.41L23.99 14.66L8.99 23.41L11.69 24.99L23.99 17.82M23.99 21L8.99 29.75L23.99 38.5L38.99 29.75L23.99 21M23.99 35.34L14.42 29.75L23.99 24.16L33.56 29.75L23.99 35.34M23.99 11.66L36.27 18.84L38.99 17.25L23.99 8.5L8.99 17.25L11.69 18.82L23.99 11.66Z" />
  </g>
  <g transform="translate(100, 0)">
    <path id="pixabay" d="M39.84 0.04L40.26 0.09L40.66 0.15L41.06 0.24L41.46 0.34L41.84 0.46L42.22 0.59L42.6 0.75L42.96 0.91L43.31 1.1L43.66 1.3L43.99 1.51L44.32 1.74L44.63 1.98L44.93 2.23L45.22 2.5L45.5 2.78L45.77 3.07L46.02 3.37L46.26 3.68L46.49 4.01L46.7 4.34L46.9 4.69L47.09 5.04L47.25 5.4L47.41 5.78L47.54 6.16L47.66 6.54L47.76 6.94L47.85 7.34L47.91 7.74L47.96 8.16L47.99 8.58L48 9L48 39L47.99 39.42L47.96 39.84L47.91 40.26L47.85 40.66L47.76 41.06L47.66 41.46L47.54 41.84L47.41 42.22L47.25 42.6L47.09 42.96L46.9 43.31L46.7 43.66L46.49 43.99L46.26 44.32L46.02 44.63L45.77 44.93L45.5 45.22L45.22 45.5L44.93 45.77L44.63 46.02L44.32 46.26L43.99 46.49L43.66 46.7L43.31 46.9L42.96 47.09L42.6 47.25L42.22 47.41L41.84 47.54L41.46 47.66L41.06 47.76L40.66 47.85L40.26 47.91L39.84 47.96L39.42 47.99L39 48L9 48L8.58 47.99L8.16 47.96L7.74 47.91L7.34 47.85L6.94 47.76L6.54 47.66L6.16 47.54L5.78 47.41L5.4 47.25L5.04 47.09L4.69 46.9L4.34 46.7L4.01 46.49L3.68 46.26L3.37 46.02L3.07 45.77L2.78 45.5L2.5 45.22L2.23 44.93L1.98 44.63L1.74 44.32L1.51 43.99L1.3 43.66L1.1 43.31L0.91 42.96L0.75 42.6L0.59 42.22L0.46 41.84L0.34 41.46L0.24 41.06L0.15 40.66L0.09 40.26L0.04 39.84L0.01 39.42L0 39L0 9L0.01 8.58L0.04 8.16L0.09 7.74L0.15 7.34L0.24 6.94L0.34 6.54L0.46 6.16L0.59 5.78L0.75 5.4L0.91 5.04L1.1 4.69L1.3 4.34L1.51 4.01L1.74 3.68L1.98 3.37L2.23 3.07L2.5 2.78L2.78 2.5L3.07 2.23L3.37 1.98L3.68 1.74L4.01 1.51L4.34 1.3L4.69 1.1L5.04 0.91L5.4 0.75L5.78 0.59L6.16 0.46L6.54 0.34L6.94 0.24L7.34 0.15L7.74 0.09L8.16 0.04L8.58 0.01L9 0L39 0L39.42 0.01L39.84 0.04ZM8.82 6.01L8.64 6.02L8.46 6.05L8.29 6.09L8.12 6.13L7.95 6.19L7.79 6.25L7.64 6.33L7.48 6.41L7.34 6.5L7.2 6.6L7.07 6.71L6.94 6.82L6.82 6.94L6.7 7.07L6.6 7.2L6.5 7.34L6.41 7.49L6.33 7.64L6.25 7.79L6.19 7.95L6.13 8.12L6.08 8.29L6.05 8.46L6.02 8.64L6.01 8.82L6 9L6 39L6.01 39.18L6.02 39.36L6.05 39.54L6.08 39.71L6.13 39.88L6.19 40.05L6.25 40.21L6.33 40.36L6.41 40.52L6.5 40.66L6.6 40.8L6.7 40.93L6.82 41.06L6.94 41.18L7.07 41.3L7.2 41.4L7.34 41.5L7.48 41.59L7.64 41.67L7.79 41.75L7.95 41.81L8.12 41.87L8.29 41.92L8.46 41.95L8.64 41.98L8.82 41.99L9 42L39 42L39.18 41.99L39.36 41.98L39.54 41.95L39.71 41.92L39.88 41.87L40.05 41.81L40.21 41.75L40.36 41.67L40.52 41.59L40.66 41.5L40.8 41.4L40.93 41.3L41.06 41.18L41.18 41.06L41.3 40.93L41.4 40.8L41.5 40.66L41.59 40.52L41.67 40.36L41.75 40.21L41.81 40.05L41.87 39.88L41.92 39.71L41.95 39.54L41.98 39.36L41.99 39.18L42 39L42 9L41.9 8.78L41.8 8.57L41.7 8.37L41.6 8.18L41.49 7.99L41.39 7.81L41.28 7.65L41.18 7.49L41.07 7.33L40.96 7.19L40.85 7.05L40.75 6.93L40.63 6.81L40.52 6.7L40.41 6.59L40.3 6.5L40.19 6.41L40.07 6.33L39.96 6.26L39.84 6.2L39.72 6.15L39.6 6.1L39.48 6.07L39.36 6.04L39.24 6.02L39.12 6L39 6L9 6L8.82 6.01Z M13.75 36.7C14.25 36.22 18.18 32.38 18.68 31.9C20.7 33.16 23.1 33.92 25.68 33.92C32.87 33.92 38.7 28.23 38.7 21.21C38.7 14.19 32.87 8.5 25.68 8.5C18.49 8.5 12.66 14.19 12.66 21.21C12.66 23.73 13.44 26.07 14.73 28.05C14.24 28.53 10.3 32.37 9.81 32.85C8.72 33.92 8.72 35.64 9.81 36.7C10.9 37.77 12.66 37.77 13.75 36.7ZM34.98 21.21C34.98 26.22 30.81 30.29 25.68 30.29C20.54 30.29 16.38 26.22 16.38 21.21C16.38 16.19 20.54 12.13 25.68 12.13C30.81 12.13 34.98 16.19 34.98 21.21Z" />
  </g>
  <g transform="translate(0, 50)">
    <path id="new" d="M39.84 0.04L40.26 0.09L40.66 0.15L41.06 0.24L41.46 0.34L41.84 0.46L42.22 0.59L42.6 0.75L42.96 0.91L43.31 1.1L43.66 1.3L43.99 1.51L44.32 1.74L44.63 1.98L44.93 2.23L45.22 2.5L45.5 2.78L45.77 3.07L46.02 3.37L46.26 3.68L46.49 4.01L46.7 4.34L46.9 4.69L47.09 5.04L47.25 5.4L47.41 5.78L47.54 6.16L47.66 6.54L47.76 6.94L47.85 7.34L47.91 7.74L47.96 8.16L47.99 8.58L48 9L48 39L47.99 39.42L47.96 39.84L47.91 40.26L47.85 40.66L47.76 41.06L47.66 41.46L47.54 41.84L47.41 42.22L47.25 42.6L47.09 42.96L46.9 43.31L46.7 43.66L46.49 43.99L46.26 44.32L46.02 44.63L45.77 44.93L45.5 45.22L45.22 45.5L44.93 45.77L44.63 46.02L44.32 46.26L43.99 46.49L43.66 46.7L43.31 46.9L42.96 47.09L42.6 47.25L42.22 47.41L41.84 47.54L41.46 47.66L41.06 47.76L40.66 47.85L40.26 47.91L39.84 47.96L39.42 47.99L39 48L9 48L8.58 47.99L8.16 47.96L7.74 47.91L7.34 47.85L6.94 47.76L6.54 47.66L6.16 47.54L5.78 47.41L5.4 47.25L5.04 47.09L4.69 46.9L4.34 46.7L4.01 46.49L3.68 46.26L3.37 46.02L3.07 45.77L2.78 45.5L2.5 45.22L2.23 44.93L1.98 44.63L1.74 44.32L1.51 43.99L1.3 43.66L1.1 43.31L0.91 42.96L0.75 42.6L0.59 42.22L0.46 41.84L0.34 41.46L0.24 41.06L0.15 40.66L0.09 40.26L0.04 39.84L0.01 39.42L0 39L0 9L0.01 8.58L0.04 8.16L0.09 7.74L0.15 7.34L0.24 6.94L0.34 6.54L0.46 6.16L0.59 5.78L0.75 5.4L0.91 5.04L1.1 4.69L1.3 4.34L1.51 4.01L1.74 3.68L1.98 3.37L2.23 3.07L2.5 2.78L2.78 2.5L3.07 2.23L3.37 1.98L3.68 1.74L4.01 1.51L4.34 1.3L4.69 1.1L5.04 0.91L5.4 0.75L5.78 0.59L6.16 0.46L6.54 0.34L6.94 0.24L7.34 0.15L7.74 0.09L8.16 0.04L8.58 0.01L9 0L39 0L39.42 0.01L39.84 0.04ZM8.82 6.01L8.64 6.02L8.46 6.05L8.29 6.09L8.12 6.13L7.95 6.19L7.79 6.25L7.64 6.33L7.48 6.41L7.34 6.5L7.2 6.6L7.07 6.71L6.94 6.82L6.82 6.94L6.7 7.07L6.6 7.2L6.5 7.34L6.41 7.49L6.33 7.64L6.25 7.79L6.19 7.95L6.13 8.12L6.08 8.29L6.05 8.46L6.02 8.64L6.01 8.82L6 9L6 39L6.01 39.18L6.02 39.36L6.05 39.54L6.08 39.71L6.13 39.88L6.19 40.05L6.25 40.21L6.33 40.36L6.41 40.52L6.5 40.66L6.6 40.8L6.7 40.93L6.82 41.06L6.94 41.18L7.07 41.3L7.2 41.4L7.34 41.5L7.48 41.59L7.64 41.67L7.79 41.75L7.95 41.81L8.12 41.87L8.29 41.92L8.46 41.95L8.64 41.98L8.82 41.99L9 42L39 42L39.18 41.99L39.36 41.98L39.54 41.95L39.71 41.92L39.88 41.87L40.05 41.81L40.21 41.75L40.36 41.67L40.52 41.59L40.66 41.5L40.8 41.4L40.93 41.3L41.06 41.18L41.18 41.06L41.3 40.93L41.4 40.8L41.5 40.66L41.59 40.52L41.67 40.36L41.75 40.21L41.81 40.05L41.87 39.88L41.92 39.71L41.95 39.54L41.98 39.36L41.99 39.18L42 39L42 9L41.9 8.78L41.8 8.57L41.7 8.37L41.6 8.18L41.49 7.99L41.39 7.81L41.28 7.65L41.18 7.49L41.07 7.33L40.96 7.19L40.85 7.05L40.75 6.93L40.63 6.81L40.52 6.7L40.41 6.59L40.3 6.5L40.19 6.41L40.07 6.33L39.96 6.26L39.84 6.2L39.72 6.15L39.6 6.1L39.48 6.07L39.36 6.04L39.24 6.02L39.12 6L39 6L9 6L8.82 6.01Z M24 25.98L24 21.97L21.12 21.97L21.12 25.98L16.81 25.98L16.81 28.66L21.12 28.66L21.12 32.67L24 32.67L24 28.66L28.31 28.66L28.31 25.98M26.88 9.93C19.97 9.93 16.14 9.93 15.37 9.93C13.78 9.93 12.49 11.13 12.49 12.61C12.49 14.75 12.49 31.87 12.49 34.01C12.49 35.49 13.78 36.68 15.37 36.68C17.1 36.68 30.9 36.68 32.63 36.68C34.22 36.68 35.51 35.49 35.51 34.01C35.51 32.94 35.51 27.59 35.51 17.96L26.88 9.93M32.63 34.01L15.37 34.01L15.37 12.61L25.44 12.61L25.44 19.3L32.63 19.3" />
  </g>
  <g transform="translate(50, 50)">
    <path id="open" d="M39.84 0.04L40.26 0.09L40.66 0.15L41.06 0.24L41.46 0.34L41.84 0.46L42.22 0.59L42.6 0.75L42.96 0.91L43.31 1.1L43.66 1.3L43.99 1.51L44.32 1.74L44.63 1.98L44.93 2.23L45.22 2.5L45.5 2.78L45.77 3.07L46.02 3.37L46.26 3.68L46.49 4.01L46.7 4.34L46.9 4.69L47.09 5.04L47.25 5.4L47.41 5.78L47.54 6.16L47.66 6.54L47.76 6.94L47.85 7.34L47.91 7.74L47.96 8.16L47.99 8.58L48 9L48 39L47.99 39.42L47.96 39.84L47.91 40.26L47.85 40.66L47.76 41.06L47.66 41.46L47.54 41.84L47.41 42.22L47.25 42.6L47.09 42.96L46.9 43.31L46.7 43.66L46.49 43.99L46.26 44.32L46.02 44.63L45.77 44.93L45.5 45.22L45.22 45.5L44.93 45.77L44.63 46.02L44.32 46.26L43.99 46.49L43.66 46.7L43.31 46.9L42.96 47.09L42.6 47.25L42.22 47.41L41.84 47.54L41.46 47.66L41.06 47.76L40.66 47.85L40.26 47.91L39.84 47.96L39.42 47.99L39 48L9 48L8.58 47.99L8.16 47.96L7.74 47.91L7.34 47.85L6.94 47.76L6.54 47.66L6.16 47.54L5.78 47.41L5.4 47.25L5.04 47.09L4.69 46.9L4.34 46.7L4.01 46.49L3.68 46.26L3.37 46.02L3.07 45.77L2.78 45.5L2.5 45.22L2.23 44.93L1.98 44.63L1.74 44.32L1.51 43.99L1.3 43.66L1.1 43.31L0.91 42.96L0.75 42.6L0.59 42.22L0.46 41.84L0.34 41.46L0.24 41.06L0.15 40.66L0.09 40.26L0.04 39.84L0.01 39.42L0 39L0 9L0.01 8.58L0.04 8.16L0.09 7.74L0.15 7.34L0.24 6.94L0.34 6.54L0.46 6.16L0.59 5.78L0.75 5.4L0.91 5.04L1.1 4.69L1.3 4.34L1.51 4.01L1.74 3.68L1.98 3.37L2.23 3.07L2.5 2.78L2.78 2.5L3.07 2.23L3.37 1.98L3.68 1.74L4.01 1.51L4.34 1.3L4.69 1.1L5.04 0.91L5.4 0.75L5.78 0.59L6.16 0.46L6.54 0.34L6.94 0.24L7.34 0.15L7.74 0.09L8.16 0.04L8.58 0.01L9 0L39 0L39.42 0.01L39.84 0.04ZM8.82 6.01L8.64 6.02L8.46 6.05L8.29 6.09L8.12 6.13L7.95 6.19L7.79 6.25L7.64 6.33L7.48 6.41L7.34 6.5L7.2 6.6L7.07 6.71L6.94 6.82L6.82 6.94L6.7 7.07L6.6 7.2L6.5 7.34L6.41 7.49L6.33 7.64L6.25 7.79L6.19 7.95L6.13 8.12L6.08 8.29L6.05 8.46L6.02 8.64L6.01 8.82L6 9L6 39L6.01 39.18L6.02 39.36L6.05 39.54L6.08 39.71L6.13 39.88L6.19 40.05L6.25 40.21L6.33 40.36L6.41 40.52L6.5 40.66L6.6 40.8L6.7 40.93L6.82 41.06L6.94 41.18L7.07 41.3L7.2 41.4L7.34 41.5L7.48 41.59L7.64 41.67L7.79 41.75L7.95 41.81L8.12 41.87L8.29 41.92L8.46 41.95L8.64 41.98L8.82 41.99L9 42L39 42L39.18 41.99L39.36 41.98L39.54 41.95L39.71 41.92L39.88 41.87L40.05 41.81L40.21 41.75L40.36 41.67L40.52 41.59L40.66 41.5L40.8 41.4L40.93 41.3L41.06 41.18L41.18 41.06L41.3 40.93L41.4 40.8L41.5 40.66L41.59 40.52L41.67 40.36L41.75 40.21L41.81 40.05L41.87 39.88L41.92 39.71L41.95 39.54L41.98 39.36L41.99 39.18L42 39L42 9L41.9 8.78L41.8 8.57L41.7 8.37L41.6 8.18L41.49 7.99L41.39 7.81L41.28 7.65L41.18 7.49L41.07 7.33L40.96 7.19L40.85 7.05L40.75 6.93L40.63 6.81L40.52 6.7L40.41 6.59L40.3 6.5L40.19 6.41L40.07 6.33L39.96 6.26L39.84 6.2L39.72 6.15L39.6 6.1L39.48 6.07L39.36 6.04L39.24 6.02L39.12 6L39 6L9 6L8.82 6.01Z M21.44 32.31L33.73 34.94L18.38 34.96C18.36 22.09 18.35 14.94 18.34 13.51C16.65 13.52 15.28 14.65 15.28 16.04C15.28 16.63 15.28 19.58 15.29 24.88L12.23 27.4C12.23 31.95 12.24 34.47 12.24 34.97C12.24 36.37 13.62 37.5 15.31 37.49C17.16 37.49 31.89 37.47 33.73 37.46C35.43 37.46 36.8 36.33 36.8 34.93C36.79 33.04 36.77 17.9 36.76 16.01C36.76 14.87 35.84 13.86 34.46 13.61C33.59 13.42 29.24 12.46 21.41 10.73L21.44 32.31M33.72 32.42L24.51 30.41L24.48 14.01L33.7 16.01L33.72 32.42Z" />
  </g>
  <g transform="translate(100, 50)">
    <path id="webcam" d="M39.84 0.04L40.26 0.09L40.66 0.15L41.06 0.24L41.46 0.34L41.84 0.46L42.22 0.59L42.6 0.75L42.96 0.91L43.31 1.1L43.66 1.3L43.99 1.51L44.32 1.74L44.63 1.98L44.93 2.23L45.22 2.5L45.5 2.78L45.77 3.07L46.02 3.37L46.26 3.68L46.49 4.01L46.7 4.34L46.9 4.69L47.09 5.04L47.25 5.4L47.41 5.78L47.54 6.16L47.66 6.54L47.76 6.94L47.85 7.34L47.91 7.74L47.96 8.16L47.99 8.58L48 9L48 39L47.99 39.42L47.96 39.84L47.91 40.26L47.85 40.66L47.76 41.06L47.66 41.46L47.54 41.84L47.41 42.22L47.25 42.6L47.09 42.96L46.9 43.31L46.7 43.66L46.49 43.99L46.26 44.32L46.02 44.63L45.77 44.93L45.5 45.22L45.22 45.5L44.93 45.77L44.63 46.02L44.32 46.26L43.99 46.49L43.66 46.7L43.31 46.9L42.96 47.09L42.6 47.25L42.22 47.41L41.84 47.54L41.46 47.66L41.06 47.76L40.66 47.85L40.26 47.91L39.84 47.96L39.42 47.99L39 48L9 48L8.58 47.99L8.16 47.96L7.74 47.91L7.34 47.85L6.94 47.76L6.54 47.66L6.16 47.54L5.78 47.41L5.4 47.25L5.04 47.09L4.69 46.9L4.34 46.7L4.01 46.49L3.68 46.26L3.37 46.02L3.07 45.77L2.78 45.5L2.5 45.22L2.23 44.93L1.98 44.63L1.74 44.32L1.51 43.99L1.3 43.66L1.1 43.31L0.91 42.96L0.75 42.6L0.59 42.22L0.46 41.84L0.34 41.46L0.24 41.06L0.15 40.66L0.09 40.26L0.04 39.84L0.01 39.42L0 39L0 9L0.01 8.58L0.04 8.16L0.09 7.74L0.15 7.34L0.24 6.94L0.34 6.54L0.46 6.16L0.59 5.78L0.75 5.4L0.91 5.04L1.1 4.69L1.3 4.34L1.51 4.01L1.74 3.68L1.98 3.37L2.23 3.07L2.5 2.78L2.78 2.5L3.07 2.23L3.37 1.98L3.68 1.74L4.01 1.51L4.34 1.3L4.69 1.1L5.04 0.91L5.4 0.75L5.78 0.59L6.16 0.46L6.54 0.34L6.94 0.24L7.34 0.15L7.74 0.09L8.16 0.04L8.58 0.01L9 0L39 0L39.42 0.01L39.84 0.04ZM8.82 6.01L8.64 6.02L8.46 6.05L8.29 6.09L8.12 6.13L7.95 6.19L7.79 6.25L7.64 6.33L7.48 6.41L7.34 6.5L7.2 6.6L7.07 6.71L6.94 6.82L6.82 6.94L6.7 7.07L6.6 7.2L6.5 7.34L6.41 7.49L6.33 7.64L6.25 7.79L6.19 7.95L6.13 8.12L6.08 8.29L6.05 8.46L6.02 8.64L6.01 8.82L6 9L6 39L6.01 39.18L6.02 39.36L6.05 39.54L6.08 39.71L6.13 39.88L6.19 40.05L6.25 40.21L6.33 40.36L6.41 40.52L6.5 40.66L6.6 40.8L6.7 40.93L6.82 41.06L6.94 41.18L7.07 41.3L7.2 41.4L7.34 41.5L7.48 41.59L7.64 41.67L7.79 41.75L7.95 41.81L8.12 41.87L8.29 41.92L8.46 41.95L8.64 41.98L8.82 41.99L9 42L39 42L39.18 41.99L39.36 41.98L39.54 41.95L39.71 41.92L39.88 41.87L40.05 41.81L40.21 41.75L40.36 41.67L40.52 41.59L40.66 41.5L40.8 41.4L40.93 41.3L41.06 41.18L41.18 41.06L41.3 40.93L41.4 40.8L41.5 40.66L41.59 40.52L41.67 40.36L41.75 40.21L41.81 40.05L41.87 39.88L41.92 39.71L41.95 39.54L41.98 39.36L41.99 39.18L42 39L42 9L41.9 8.78L41.8 8.57L41.7 8.37L41.6 8.18L41.49 7.99L41.39 7.81L41.28 7.65L41.18 7.49L41.07 7.33L40.96 7.19L40.85 7.05L40.75 6.93L40.63 6.81L40.52 6.7L40.41 6.59L40.3 6.5L40.19 6.41L40.07 6.33L39.96 6.26L39.84 6.2L39.72 6.15L39.6 6.1L39.48 6.07L39.36 6.04L39.24 6.02L39.12 6L39 6L9 6L8.82 6.01Z M24.52 37.41C18.58 37.41 13.77 33.22 13.77 28.05C13.77 22.88 18.58 18.69 24.52 18.69C30.45 18.69 35.26 22.88 35.26 28.05C35.26 33.22 30.45 37.41 24.52 37.41M24.52 34.74C28.76 34.74 32.19 31.74 32.19 28.05C32.19 24.36 28.76 21.36 24.52 21.36C20.28 21.36 16.84 24.36 16.84 28.05C16.84 31.74 20.28 34.74 24.52 34.74M24.52 32.06C21.97 32.06 19.91 30.26 19.91 28.05C19.91 25.83 21.97 24.04 24.52 24.04C27.06 24.04 29.12 25.83 29.12 28.05C29.12 30.26 27.06 32.06 24.52 32.06M36.8 13.34C36.8 13.84 36.64 14.31 36.35 14.71C36.07 15.14 33.84 18.52 33.56 18.94C31.13 17.12 27.97 16.01 24.52 16.01C21.06 16.01 17.9 17.12 15.48 18.94C15.2 18.52 12.96 15.14 12.68 14.71C12.39 14.31 12.24 13.84 12.24 13.34C12.24 11.86 13.61 10.66 15.31 10.66C16.54 10.66 22.68 10.66 33.73 10.66C35.77 11.46 36.8 12.35 36.8 13.34Z" />
  </g>
  <g transform="translate(150, 0)">
    <path id="about" d="M39.84 0.04L40.26 0.09L40.66 0.15L41.06 0.24L41.46 0.34L41.84 0.46L42.22 0.59L42.6 0.75L42.96 0.91L43.31 1.1L43.66 1.3L43.99 1.51L44.32 1.74L44.63 1.98L44.93 2.23L45.22 2.5L45.5 2.78L45.77 3.07L46.02 3.37L46.26 3.68L46.49 4.01L46.7 4.34L46.9 4.69L47.09 5.04L47.25 5.4L47.41 5.78L47.54 6.16L47.66 6.54L47.76 6.94L47.85 7.34L47.91 7.74L47.96 8.16L47.99 8.58L48 9L48 39L47.99 39.42L47.96 39.84L47.91 40.26L47.85 40.66L47.76 41.06L47.66 41.46L47.54 41.84L47.41 42.22L47.25 42.6L47.09 42.96L46.9 43.31L46.7 43.66L46.49 43.99L46.26 44.32L46.02 44.63L45.77 44.93L45.5 45.22L45.22 45.5L44.93 45.77L44.63 46.02L44.32 46.26L43.99 46.49L43.66 46.7L43.31 46.9L42.96 47.09L42.6 47.25L42.22 47.41L41.84 47.54L41.46 47.66L41.06 47.76L40.66 47.85L40.26 47.91L39.84 47.96L39.42 47.99L39 48L9 48L8.58 47.99L8.16 47.96L7.74 47.91L7.34 47.85L6.94 47.76L6.54 47.66L6.16 47.54L5.78 47.41L5.4 47.25L5.04 47.09L4.69 46.9L4.34 46.7L4.01 46.49L3.68 46.26L3.37 46.02L3.07 45.77L2.78 45.5L2.5 45.22L2.23 44.93L1.98 44.63L1.74 44.32L1.51 43.99L1.3 43.66L1.1 43.31L0.91 42.96L0.75 42.6L0.59 42.22L0.46 41.84L0.34 41.46L0.24 41.06L0.15 40.66L0.09 40.26L0.04 39.84L0.01 39.42L0 39L0 9L0.01 8.58L0.04 8.16L0.09 7.74L0.15 7.34L0.24 6.94L0.34 6.54L0.46 6.16L0.59 5.78L0.75 5.4L0.91 5.04L1.1 4.69L1.3 4.34L1.51 4.01L1.74 3.68L1.98 3.37L2.23 3.07L2.5 2.78L2.78 2.5L3.07 2.23L3.37 1.98L3.68 1.74L4.01 1.51L4.34 1.3L4.69 1.1L5.04 0.91L5.4 0.75L5.78 0.59L6.16 0.46L6.54 0.34L6.94 0.24L7.34 0.15L7.74 0.09L8.16 0.04L8.58 0.01L9 0L39 0L39.42 0.01L39.84 0.04ZM8.82 6.01L8.64 6.02L8.46 6.05L8.29 6.09L8.12 6.13L7.95 6.19L7.79 6.25L7.64 6.33L7.48 6.41L7.34 6.5L7.2 6.6L7.07 6.71L6.94 6.82L6.82 6.94L6.7 7.07L6.6 7.2L6.5 7.34L6.41 7.49L6.33 7.64L6.25 7.79L6.19 7.95L6.13 8.12L6.08 8.29L6.05 8.46L6.02 8.64L6.01 8.82L6 9L6 39L6.01 39.18L6.02 39.36L6.05 39.54L6.08 39.71L6.13 39.88L6.19 40.05L6.25 40.21L6.33 40.36L6.41 40.52L6.5 40.66L6.6 40.8L6.7 40.93L6.82 41.06L6.94 41.18L7.07 41.3L7.2 41.4L7.34 41.5L7.48 41.59L7.64 41.67L7.79 41.75L7.95 41.81L8.12 41.87L8.29 41.92L8.46 41.95L8.64 41.98L8.82 41.99L9 42L39 42L39.18 41.99L39.36 41.98L39.54 41.95L39.71 41.92L39.88 41.87L40.05 41.81L40.21 41.75L40.36 41.67L40.52 41.59L40.66 41.5L40.8 41.4L40.93 41.3L41.06 41.18L41.18 41.06L41.3 40.93L41.4 40.8L41.5 40.66L41.59 40.52L41.67 40.36L41.75 40.21L41.81 40.05L41.87 39.88L41.92 39.71L41.95 39.54L41.98 39.36L41.99 39.18L42 39L42 9L41.9 8.78L41.8 8.57L41.7 8.37L41.6 8.18L41.49 7.99L41.39 7.81L41.28 7.65L41.18 7.49L41.07 7.33L40.96 7.19L40.85 7.05L40.75 6.93L40.63 6.81L40.52 6.7L40.41 6.59L40.3 6.5L40.19 6.41L40.07 6.33L39.96 6.26L39.84 6.2L39.72 6.15L39.6 6.1L39.48 6.07L39.36 6.04L39.24 6.02L39.12 6L39 6L9 6L8.82 6.01Z M14.01 10.75C12.59 10.75 11.46 11.88 11.46 13.3C11.46 14.7 11.46 25.91 11.46 27.31C11.46 28.72 12.59 29.86 14.01 29.86C15.41 29.86 26.62 29.86 28.02 29.86C29.43 29.86 30.57 28.72 30.57 27.31C30.57 27.05 30.57 25.78 30.57 23.49L28.02 23.49L28.02 27.31L14.01 27.31L14.01 13.3L28.02 13.3L28.02 15.85L30.57 15.85C30.57 14.32 30.57 13.47 30.57 13.3C30.57 11.88 29.43 10.75 28.02 10.75M21.65 18.39C20.23 18.39 19.1 19.53 19.1 20.94C19.1 21.2 19.1 22.47 19.1 24.76L21.65 24.76L21.65 20.94L35.66 20.94L35.66 34.95L21.65 34.95L21.65 32.4L19.1 32.4C19.1 33.93 19.1 34.78 19.1 34.95C19.1 36.37 20.23 37.5 21.65 37.5C23.05 37.5 34.26 37.5 35.66 37.5C37.07 37.5 38.21 36.37 38.21 34.95C38.21 33.55 38.21 22.34 38.21 20.94C38.21 19.53 37.07 18.39 35.66 18.39C34.73 18.39 30.06 18.39 21.65 18.39" />
  </g>
  <g transform="translate(150, 50)">
    <path id="calc" d="M39.84 0.04L40.26 0.09L40.66 0.15L41.06 0.24L41.46 0.34L41.84 0.46L42.22 0.59L42.6 0.75L42.96 0.91L43.31 1.1L43.66 1.3L43.99 1.51L44.32 1.74L44.63 1.98L44.93 2.23L45.22 2.5L45.5 2.78L45.77 3.07L46.02 3.37L46.26 3.68L46.49 4.01L46.7 4.34L46.9 4.69L47.09 5.04L47.25 5.4L47.41 5.78L47.54 6.16L47.66 6.54L47.76 6.94L47.85 7.34L47.91 7.74L47.96 8.16L47.99 8.58L48 9L48 39L47.99 39.42L47.96 39.84L47.91 40.26L47.85 40.66L47.76 41.06L47.66 41.46L47.54 41.84L47.41 42.22L47.25 42.6L47.09 42.96L46.9 43.31L46.7 43.66L46.49 43.99L46.26 44.32L46.02 44.63L45.77 44.93L45.5 45.22L45.22 45.5L44.93 45.77L44.63 46.02L44.32 46.26L43.99 46.49L43.66 46.7L43.31 46.9L42.96 47.09L42.6 47.25L42.22 47.41L41.84 47.54L41.46 47.66L41.06 47.76L40.66 47.85L40.26 47.91L39.84 47.96L39.42 47.99L39 48L9 48L8.58 47.99L8.16 47.96L7.74 47.91L7.34 47.85L6.94 47.76L6.54 47.66L6.16 47.54L5.78 47.41L5.4 47.25L5.04 47.09L4.69 46.9L4.34 46.7L4.01 46.49L3.68 46.26L3.37 46.02L3.07 45.77L2.78 45.5L2.5 45.22L2.23 44.93L1.98 44.63L1.74 44.32L1.51 43.99L1.3 43.66L1.1 43.31L0.91 42.96L0.75 42.6L0.59 42.22L0.46 41.84L0.34 41.46L0.24 41.06L0.15 40.66L0.09 40.26L0.04 39.84L0.01 39.42L0 39L0 9L0.01 8.58L0.04 8.16L0.09 7.74L0.15 7.34L0.24 6.94L0.34 6.54L0.46 6.16L0.59 5.78L0.75 5.4L0.91 5.04L1.1 4.69L1.3 4.34L1.51 4.01L1.74 3.68L1.98 3.37L2.23 3.07L2.5 2.78L2.78 2.5L3.07 2.23L3.37 1.98L3.68 1.74L4.01 1.51L4.34 1.3L4.69 1.1L5.04 0.91L5.4 0.75L5.78 0.59L6.16 0.46L6.54 0.34L6.94 0.24L7.34 0.15L7.74 0.09L8.16 0.04L8.58 0.01L9 0L39 0L39.42 0.01L39.84 0.04ZM8.82 6.01L8.64 6.02L8.46 6.05L8.29 6.09L8.12 6.13L7.95 6.19L7.79 6.25L7.64 6.33L7.48 6.41L7.34 6.5L7.2 6.6L7.07 6.71L6.94 6.82L6.82 6.94L6.7 7.07L6.6 7.2L6.5 7.34L6.41 7.49L6.33 7.64L6.25 7.79L6.19 7.95L6.13 8.12L6.08 8.29L6.05 8.46L6.02 8.64L6.01 8.82L6 9L6 39L6.01 39.18L6.02 39.36L6.05 39.54L6.08 39.71L6.13 39.88L6.19 40.05L6.25 40.21L6.33 40.36L6.41 40.52L6.5 40.66L6.6 40.8L6.7 40.93L6.82 41.06L6.94 41.18L7.07 41.3L7.2 41.4L7.34 41.5L7.48 41.59L7.64 41.67L7.79 41.75L7.95 41.81L8.12 41.87L8.29 41.92L8.46 41.95L8.64 41.98L8.82 41.99L9 42L39 42L39.18 41.99L39.36 41.98L39.54 41.95L39.71 41.92L39.88 41.87L40.05 41.81L40.21 41.75L40.36 41.67L40.52 41.59L40.66 41.5L40.8 41.4L40.93 41.3L41.06 41.18L41.18 41.06L41.3 40.93L41.4 40.8L41.5 40.66L41.59 40.52L41.67 40.36L41.75 40.21L41.81 40.05L41.87 39.88L41.92 39.71L41.95 39.54L41.98 39.36L41.99 39.18L42 39L42 9L41.9 8.78L41.8 8.57L41.7 8.37L41.6 8.18L41.49 7.99L41.39 7.81L41.28 7.65L41.18 7.49L41.07 7.33L40.96 7.19L40.85 7.05L40.75 6.93L40.63 6.81L40.52 6.7L40.41 6.59L40.3 6.5L40.19 6.41L40.07 6.33L39.96 6.26L39.84 6.2L39.72 6.15L39.6 6.1L39.48 6.07L39.36 6.04L39.24 6.02L39.12 6L39 6L9 6L8.82 6.01Z M38.66 19.76C38.66 15.41 38.66 12.99 38.66 12.51C38.66 10.91 37.37 9.61 35.76 9.61C35.04 9.61 29.24 9.61 28.51 9.61C26.91 9.6 25.61 10.9 25.61 12.5C25.61 13.23 25.61 19.03 25.61 19.75C25.61 21.36 26.91 22.65 28.51 22.66C29.23 22.66 35.03 22.66 35.76 22.66C37.36 22.66 38.66 21.36 38.66 19.76M31.41 19.76L31.41 12.51L32.86 12.51L32.86 19.76L31.41 19.76M22.7 35.7C22.71 31.35 22.71 28.94 22.71 28.45C22.71 26.85 21.41 25.55 19.81 25.55C19.08 25.55 13.28 25.55 12.56 25.55C10.96 25.55 9.66 26.85 9.66 28.45C9.66 29.17 9.65 34.97 9.65 35.7C9.65 37.3 10.95 38.6 12.55 38.6C13.28 38.6 19.08 38.6 19.8 38.6C21.4 38.6 22.7 37.3 22.7 35.7M14 35.7L14.01 28.45L15.46 28.45L15.45 35.7L14 35.7M16.9 35.7L16.91 28.45L18.36 28.45L18.35 35.7L16.9 35.7M38.65 35.71C38.66 31.36 38.66 28.94 38.66 28.46C38.66 26.86 37.36 25.56 35.76 25.56C35.03 25.56 29.23 25.56 28.51 25.56C26.91 25.55 25.61 26.85 25.61 28.45C25.61 29.18 25.6 34.98 25.6 35.7C25.6 37.31 26.9 38.6 28.5 38.61C29.23 38.61 35.03 38.61 35.75 38.61C37.35 38.61 38.65 37.31 38.65 35.71M31.4 35.71L31.41 32.81L28.51 32.81L28.51 31.36L31.41 31.36L31.41 28.46L32.86 28.46L32.86 31.36L35.76 31.36L35.76 32.81L32.86 32.81L32.85 35.71L31.4 35.71M22.71 19.75C22.71 15.4 22.71 12.99 22.71 12.5C22.71 10.9 21.42 9.6 19.81 9.6C19.09 9.6 13.29 9.6 12.56 9.6C10.96 9.6 9.66 10.9 9.66 12.5C9.66 13.22 9.66 19.02 9.66 19.75C9.66 21.35 10.96 22.65 12.56 22.65C13.28 22.65 19.08 22.65 19.81 22.65C21.41 22.65 22.71 21.35 22.71 19.75M13.11 18.17L15.16 16.13L13.11 14.08L14.14 13.05L16.19 15.1L18.23 13.05L19.26 14.08L17.22 16.13L19.26 18.17L18.23 19.2L16.19 17.16L14.14 19.2L13.11 18.17Z" />
  </g>
</svg>
